<mxfile host="Electron" agent="Mozilla/5.0 (Windows NT 10.0; Win64; x64) AppleWebKit/537.36 (KHTML, like Gecko) draw.io/26.0.9 Chrome/128.0.6613.186 Electron/32.2.5 Safari/537.36" version="26.0.9">
  <diagram name="Page-1" id="9zar-TfpfRPKXAqxxheN">
    <mxGraphModel dx="1953" dy="643" grid="1" gridSize="12" guides="1" tooltips="1" connect="1" arrows="1" fold="1" page="1" pageScale="1" pageWidth="850" pageHeight="1100" background="#000000" math="0" shadow="0">
      <root>
        <mxCell id="0" />
        <mxCell id="1" parent="0" />
        <mxCell id="RxEbMOdD4OnWjUPRq5Kc-1" value="TCP Listeners allow exchange of network traffic between client and servers" style="rounded=0;whiteSpace=wrap;html=1;fillColor=#e1d5e7;strokeColor=#9673a6;" parent="1" vertex="1">
          <mxGeometry x="20" y="60" width="240" height="60" as="geometry" />
        </mxCell>
        <mxCell id="RxEbMOdD4OnWjUPRq5Kc-6" style="edgeStyle=orthogonalEdgeStyle;rounded=0;orthogonalLoop=1;jettySize=auto;html=1;entryX=0;entryY=0.25;entryDx=0;entryDy=0;exitX=1;exitY=0.25;exitDx=0;exitDy=0;fillColor=#f5f5f5;strokeColor=#FEFFFC;" parent="1" source="RxEbMOdD4OnWjUPRq5Kc-3" target="RxEbMOdD4OnWjUPRq5Kc-4" edge="1">
          <mxGeometry relative="1" as="geometry" />
        </mxCell>
        <mxCell id="RxEbMOdD4OnWjUPRq5Kc-3" value="Client" style="rounded=0;whiteSpace=wrap;html=1;fillColor=#f5f5f5;fontColor=#333333;strokeColor=#666666;" parent="1" vertex="1">
          <mxGeometry x="-110" y="190" width="120" height="60" as="geometry" />
        </mxCell>
        <mxCell id="RxEbMOdD4OnWjUPRq5Kc-7" style="edgeStyle=orthogonalEdgeStyle;rounded=0;orthogonalLoop=1;jettySize=auto;html=1;exitX=0;exitY=0.75;exitDx=0;exitDy=0;entryX=1;entryY=0.75;entryDx=0;entryDy=0;fillColor=#f5f5f5;strokeColor=#FEFFFC;" parent="1" source="RxEbMOdD4OnWjUPRq5Kc-4" target="RxEbMOdD4OnWjUPRq5Kc-3" edge="1">
          <mxGeometry relative="1" as="geometry" />
        </mxCell>
        <mxCell id="RxEbMOdD4OnWjUPRq5Kc-8" style="edgeStyle=orthogonalEdgeStyle;rounded=0;orthogonalLoop=1;jettySize=auto;html=1;exitX=1;exitY=0.25;exitDx=0;exitDy=0;entryX=0;entryY=0.25;entryDx=0;entryDy=0;fillColor=#f5f5f5;strokeColor=#FEFFFC;" parent="1" source="RxEbMOdD4OnWjUPRq5Kc-4" target="RxEbMOdD4OnWjUPRq5Kc-5" edge="1">
          <mxGeometry relative="1" as="geometry">
            <Array as="points">
              <mxPoint x="216" y="205" />
              <mxPoint x="216" y="205" />
            </Array>
          </mxGeometry>
        </mxCell>
        <mxCell id="RxEbMOdD4OnWjUPRq5Kc-4" value="TCP Listener" style="rounded=0;whiteSpace=wrap;html=1;fillColor=#d5e8d4;strokeColor=#82b366;" parent="1" vertex="1">
          <mxGeometry x="70" y="190" width="120" height="60" as="geometry" />
        </mxCell>
        <mxCell id="RxEbMOdD4OnWjUPRq5Kc-9" style="edgeStyle=orthogonalEdgeStyle;rounded=0;orthogonalLoop=1;jettySize=auto;html=1;exitX=0;exitY=0.75;exitDx=0;exitDy=0;entryX=1;entryY=0.75;entryDx=0;entryDy=0;fillColor=#f5f5f5;strokeColor=#FEFFFC;" parent="1" source="RxEbMOdD4OnWjUPRq5Kc-5" target="RxEbMOdD4OnWjUPRq5Kc-4" edge="1">
          <mxGeometry relative="1" as="geometry" />
        </mxCell>
        <mxCell id="RxEbMOdD4OnWjUPRq5Kc-5" value="Server" style="rounded=0;whiteSpace=wrap;html=1;fillColor=#f8cecc;strokeColor=#b85450;" parent="1" vertex="1">
          <mxGeometry x="250" y="190" width="120" height="60" as="geometry" />
        </mxCell>
        <mxCell id="RxEbMOdD4OnWjUPRq5Kc-23" value="" style="edgeStyle=orthogonalEdgeStyle;rounded=0;orthogonalLoop=1;jettySize=auto;html=1;strokeWidth=4;fillColor=#d5e8d4;strokeColor=#82b366;" parent="1" source="RxEbMOdD4OnWjUPRq5Kc-10" target="RxEbMOdD4OnWjUPRq5Kc-11" edge="1">
          <mxGeometry relative="1" as="geometry" />
        </mxCell>
        <mxCell id="RxEbMOdD4OnWjUPRq5Kc-10" value="Initialization Phase" style="rounded=0;whiteSpace=wrap;html=1;fillColor=#e1d5e7;strokeColor=#9673a6;" parent="1" vertex="1">
          <mxGeometry x="-420" y="460" width="240" height="60" as="geometry" />
        </mxCell>
        <mxCell id="RxEbMOdD4OnWjUPRq5Kc-20" value="" style="edgeStyle=orthogonalEdgeStyle;rounded=0;orthogonalLoop=1;jettySize=auto;html=1;strokeWidth=4;fillColor=#d5e8d4;strokeColor=#82b366;" parent="1" source="RxEbMOdD4OnWjUPRq5Kc-11" target="RxEbMOdD4OnWjUPRq5Kc-13" edge="1">
          <mxGeometry relative="1" as="geometry" />
        </mxCell>
        <mxCell id="RxEbMOdD4OnWjUPRq5Kc-11" value="Listener Setup" style="rounded=0;whiteSpace=wrap;html=1;fillColor=#6d8764;fontColor=#ffffff;strokeColor=#3A5431;" parent="1" vertex="1">
          <mxGeometry x="-100" y="460" width="120" height="60" as="geometry" />
        </mxCell>
        <mxCell id="RxEbMOdD4OnWjUPRq5Kc-12" value="A TCP listener binds to a IP adress and port, entering listening state" style="rounded=0;whiteSpace=wrap;html=1;fillColor=#ffe6cc;strokeColor=#d79b00;" parent="1" vertex="1">
          <mxGeometry x="-120" y="530" width="160" height="60" as="geometry" />
        </mxCell>
        <mxCell id="RxEbMOdD4OnWjUPRq5Kc-24" value="" style="edgeStyle=orthogonalEdgeStyle;rounded=0;orthogonalLoop=1;jettySize=auto;html=1;strokeWidth=4;fillColor=#d5e8d4;strokeColor=#82b366;" parent="1" source="RxEbMOdD4OnWjUPRq5Kc-13" target="RxEbMOdD4OnWjUPRq5Kc-15" edge="1">
          <mxGeometry relative="1" as="geometry" />
        </mxCell>
        <mxCell id="RxEbMOdD4OnWjUPRq5Kc-13" value="Wait for Connections" style="rounded=0;whiteSpace=wrap;html=1;fillColor=#6d8764;fontColor=#ffffff;strokeColor=#3A5431;" parent="1" vertex="1">
          <mxGeometry x="120" y="460" width="120" height="60" as="geometry" />
        </mxCell>
        <mxCell id="RxEbMOdD4OnWjUPRq5Kc-14" value="Listener enters loop, awaiting incoming connection requests" style="rounded=0;whiteSpace=wrap;html=1;fillColor=#ffe6cc;strokeColor=#d79b00;" parent="1" vertex="1">
          <mxGeometry x="100" y="530" width="160" height="60" as="geometry" />
        </mxCell>
        <mxCell id="RxEbMOdD4OnWjUPRq5Kc-25" value="" style="edgeStyle=orthogonalEdgeStyle;rounded=0;orthogonalLoop=1;jettySize=auto;html=1;strokeWidth=4;fillColor=#d5e8d4;strokeColor=#82b366;" parent="1" source="RxEbMOdD4OnWjUPRq5Kc-15" target="RxEbMOdD4OnWjUPRq5Kc-17" edge="1">
          <mxGeometry relative="1" as="geometry" />
        </mxCell>
        <mxCell id="RxEbMOdD4OnWjUPRq5Kc-15" value="Connection Phase" style="rounded=0;whiteSpace=wrap;html=1;fillColor=#e1d5e7;strokeColor=#9673a6;" parent="1" vertex="1">
          <mxGeometry x="320" y="460" width="240" height="60" as="geometry" />
        </mxCell>
        <mxCell id="RxEbMOdD4OnWjUPRq5Kc-26" value="" style="edgeStyle=orthogonalEdgeStyle;rounded=0;orthogonalLoop=1;jettySize=auto;html=1;strokeWidth=4;fillColor=#d5e8d4;strokeColor=#82b366;" parent="1" source="RxEbMOdD4OnWjUPRq5Kc-17" target="RxEbMOdD4OnWjUPRq5Kc-19" edge="1">
          <mxGeometry relative="1" as="geometry" />
        </mxCell>
        <mxCell id="RxEbMOdD4OnWjUPRq5Kc-17" value="Client Request" style="rounded=0;whiteSpace=wrap;html=1;fillColor=#6d8764;fontColor=#ffffff;strokeColor=#3A5431;" parent="1" vertex="1">
          <mxGeometry x="670" y="460" width="120" height="60" as="geometry" />
        </mxCell>
        <mxCell id="RxEbMOdD4OnWjUPRq5Kc-18" value="A client initiates a connection via TCP handshake" style="rounded=0;whiteSpace=wrap;html=1;fillColor=#ffe6cc;strokeColor=#d79b00;" parent="1" vertex="1">
          <mxGeometry x="650" y="540" width="160" height="60" as="geometry" />
        </mxCell>
        <mxCell id="RxEbMOdD4OnWjUPRq5Kc-34" style="edgeStyle=orthogonalEdgeStyle;rounded=0;orthogonalLoop=1;jettySize=auto;html=1;exitX=1;exitY=0.5;exitDx=0;exitDy=0;strokeWidth=4;fillColor=#d5e8d4;strokeColor=#82b366;" parent="1" source="RxEbMOdD4OnWjUPRq5Kc-19" target="RxEbMOdD4OnWjUPRq5Kc-33" edge="1">
          <mxGeometry relative="1" as="geometry">
            <Array as="points">
              <mxPoint x="1050" y="490" />
              <mxPoint x="1050" y="630" />
              <mxPoint x="-305" y="630" />
            </Array>
          </mxGeometry>
        </mxCell>
        <mxCell id="RxEbMOdD4OnWjUPRq5Kc-19" value="Connection Established" style="rounded=0;whiteSpace=wrap;html=1;fillColor=#6d8764;fontColor=#ffffff;strokeColor=#3A5431;" parent="1" vertex="1">
          <mxGeometry x="890" y="460" width="120" height="60" as="geometry" />
        </mxCell>
        <mxCell id="RxEbMOdD4OnWjUPRq5Kc-27" value="The server accepts clients request, handshake complete, creating dedication connection for client" style="rounded=0;whiteSpace=wrap;html=1;fillColor=#ffe6cc;strokeColor=#d79b00;" parent="1" vertex="1">
          <mxGeometry x="870" y="540" width="160" height="60" as="geometry" />
        </mxCell>
        <mxCell id="RxEbMOdD4OnWjUPRq5Kc-36" value="" style="edgeStyle=orthogonalEdgeStyle;rounded=0;orthogonalLoop=1;jettySize=auto;html=1;strokeWidth=4;fillColor=#d5e8d4;strokeColor=#82b366;" parent="1" source="RxEbMOdD4OnWjUPRq5Kc-33" target="RxEbMOdD4OnWjUPRq5Kc-35" edge="1">
          <mxGeometry relative="1" as="geometry" />
        </mxCell>
        <mxCell id="RxEbMOdD4OnWjUPRq5Kc-33" value="Communication Phase" style="rounded=0;whiteSpace=wrap;html=1;fillColor=#e1d5e7;strokeColor=#9673a6;" parent="1" vertex="1">
          <mxGeometry x="-425" y="700" width="240" height="60" as="geometry" />
        </mxCell>
        <mxCell id="RxEbMOdD4OnWjUPRq5Kc-43" value="" style="edgeStyle=orthogonalEdgeStyle;rounded=0;orthogonalLoop=1;jettySize=auto;html=1;entryX=0;entryY=0.5;entryDx=0;entryDy=0;strokeWidth=4;fillColor=#d5e8d4;strokeColor=#82b366;" parent="1" source="RxEbMOdD4OnWjUPRq5Kc-35" target="RxEbMOdD4OnWjUPRq5Kc-40" edge="1">
          <mxGeometry relative="1" as="geometry">
            <mxPoint x="120" y="729.9999999999998" as="targetPoint" />
          </mxGeometry>
        </mxCell>
        <mxCell id="RxEbMOdD4OnWjUPRq5Kc-35" value="Data Transmission" style="rounded=0;whiteSpace=wrap;html=1;fillColor=#6d8764;fontColor=#ffffff;strokeColor=#3A5431;" parent="1" vertex="1">
          <mxGeometry x="-100" y="700" width="120" height="60" as="geometry" />
        </mxCell>
        <mxCell id="RxEbMOdD4OnWjUPRq5Kc-37" style="edgeStyle=orthogonalEdgeStyle;rounded=0;orthogonalLoop=1;jettySize=auto;html=1;exitX=0.5;exitY=1;exitDx=0;exitDy=0;" parent="1" source="RxEbMOdD4OnWjUPRq5Kc-35" target="RxEbMOdD4OnWjUPRq5Kc-35" edge="1">
          <mxGeometry relative="1" as="geometry" />
        </mxCell>
        <mxCell id="RxEbMOdD4OnWjUPRq5Kc-38" value="The listener receives a NetworkStream to hold communication" style="rounded=0;whiteSpace=wrap;html=1;fillColor=#ffe6cc;strokeColor=#d79b00;" parent="1" vertex="1">
          <mxGeometry x="-210" y="780" width="160" height="60" as="geometry" />
        </mxCell>
        <mxCell id="RxEbMOdD4OnWjUPRq5Kc-39" value="Messages from the client are segmented, transmitted and reassembled as byte streams" style="rounded=0;whiteSpace=wrap;html=1;fillColor=#ffe6cc;strokeColor=#d79b00;" parent="1" vertex="1">
          <mxGeometry x="-40" y="780" width="160" height="60" as="geometry" />
        </mxCell>
        <mxCell id="RxEbMOdD4OnWjUPRq5Kc-46" value="" style="edgeStyle=orthogonalEdgeStyle;rounded=0;orthogonalLoop=1;jettySize=auto;html=1;strokeWidth=4;fillColor=#d5e8d4;strokeColor=#82b366;" parent="1" source="RxEbMOdD4OnWjUPRq5Kc-40" target="RxEbMOdD4OnWjUPRq5Kc-45" edge="1">
          <mxGeometry relative="1" as="geometry" />
        </mxCell>
        <mxCell id="RxEbMOdD4OnWjUPRq5Kc-40" value="Decoding" style="rounded=0;whiteSpace=wrap;html=1;fillColor=#6d8764;fontColor=#ffffff;strokeColor=#3A5431;" parent="1" vertex="1">
          <mxGeometry x="190" y="700" width="120" height="60" as="geometry" />
        </mxCell>
        <mxCell id="RxEbMOdD4OnWjUPRq5Kc-41" value="The server decodes the byte stream into meaningful data (such as strings)" style="rounded=0;whiteSpace=wrap;html=1;fillColor=#ffe6cc;strokeColor=#d79b00;" parent="1" vertex="1">
          <mxGeometry x="170" y="780" width="160" height="60" as="geometry" />
        </mxCell>
        <mxCell id="RxEbMOdD4OnWjUPRq5Kc-49" value="" style="edgeStyle=orthogonalEdgeStyle;rounded=0;orthogonalLoop=1;jettySize=auto;html=1;fillColor=#d5e8d4;strokeColor=#82b366;strokeWidth=4;" parent="1" source="RxEbMOdD4OnWjUPRq5Kc-45" target="RxEbMOdD4OnWjUPRq5Kc-47" edge="1">
          <mxGeometry relative="1" as="geometry" />
        </mxCell>
        <mxCell id="RxEbMOdD4OnWjUPRq5Kc-45" value="Processing Phase" style="rounded=0;whiteSpace=wrap;html=1;fillColor=#e1d5e7;strokeColor=#9673a6;" parent="1" vertex="1">
          <mxGeometry x="390" y="700" width="240" height="60" as="geometry" />
        </mxCell>
        <mxCell id="RxEbMOdD4OnWjUPRq5Kc-52" value="" style="edgeStyle=orthogonalEdgeStyle;rounded=0;orthogonalLoop=1;jettySize=auto;html=1;strokeWidth=4;fillColor=#d5e8d4;strokeColor=#82b366;" parent="1" source="RxEbMOdD4OnWjUPRq5Kc-47" target="RxEbMOdD4OnWjUPRq5Kc-50" edge="1">
          <mxGeometry relative="1" as="geometry" />
        </mxCell>
        <mxCell id="RxEbMOdD4OnWjUPRq5Kc-47" value="Message Handling" style="rounded=0;whiteSpace=wrap;html=1;fillColor=#6d8764;fontColor=#ffffff;strokeColor=#3A5431;" parent="1" vertex="1">
          <mxGeometry x="660" y="700" width="120" height="60" as="geometry" />
        </mxCell>
        <mxCell id="RxEbMOdD4OnWjUPRq5Kc-48" value="The server Processes the received data, storing it, displaying it or responding etc" style="rounded=0;whiteSpace=wrap;html=1;fillColor=#ffe6cc;strokeColor=#d79b00;" parent="1" vertex="1">
          <mxGeometry x="640" y="780" width="160" height="60" as="geometry" />
        </mxCell>
        <mxCell id="RxEbMOdD4OnWjUPRq5Kc-64" style="edgeStyle=orthogonalEdgeStyle;rounded=0;orthogonalLoop=1;jettySize=auto;html=1;exitX=1;exitY=0.5;exitDx=0;exitDy=0;fillColor=#d5e8d4;strokeColor=#82b366;strokeWidth=4;" parent="1" source="RxEbMOdD4OnWjUPRq5Kc-50" target="RxEbMOdD4OnWjUPRq5Kc-53" edge="1">
          <mxGeometry relative="1" as="geometry">
            <Array as="points">
              <mxPoint x="1050" y="730" />
              <mxPoint x="1050" y="860" />
              <mxPoint x="-305" y="860" />
            </Array>
          </mxGeometry>
        </mxCell>
        <mxCell id="RxEbMOdD4OnWjUPRq5Kc-50" value="Optional Reponses" style="rounded=0;whiteSpace=wrap;html=1;fillColor=#6d8764;fontColor=#ffffff;strokeColor=#3A5431;" parent="1" vertex="1">
          <mxGeometry x="890" y="700" width="120" height="60" as="geometry" />
        </mxCell>
        <mxCell id="RxEbMOdD4OnWjUPRq5Kc-51" value="The server may write back to client over the same connection, repeating the encode-send process" style="rounded=0;whiteSpace=wrap;html=1;fillColor=#ffe6cc;strokeColor=#d79b00;" parent="1" vertex="1">
          <mxGeometry x="870" y="780" width="160" height="60" as="geometry" />
        </mxCell>
        <mxCell id="RxEbMOdD4OnWjUPRq5Kc-57" value="" style="edgeStyle=orthogonalEdgeStyle;rounded=0;orthogonalLoop=1;jettySize=auto;html=1;strokeWidth=4;fillColor=#d5e8d4;strokeColor=#82b366;" parent="1" source="RxEbMOdD4OnWjUPRq5Kc-53" target="RxEbMOdD4OnWjUPRq5Kc-54" edge="1">
          <mxGeometry relative="1" as="geometry" />
        </mxCell>
        <mxCell id="RxEbMOdD4OnWjUPRq5Kc-53" value="Disconnection Phase" style="rounded=0;whiteSpace=wrap;html=1;fillColor=#e1d5e7;strokeColor=#9673a6;" parent="1" vertex="1">
          <mxGeometry x="-425" y="890" width="240" height="60" as="geometry" />
        </mxCell>
        <mxCell id="RxEbMOdD4OnWjUPRq5Kc-61" value="" style="edgeStyle=orthogonalEdgeStyle;rounded=0;orthogonalLoop=1;jettySize=auto;html=1;strokeWidth=4;fillColor=#d5e8d4;strokeColor=#82b366;" parent="1" source="RxEbMOdD4OnWjUPRq5Kc-54" target="RxEbMOdD4OnWjUPRq5Kc-59" edge="1">
          <mxGeometry relative="1" as="geometry" />
        </mxCell>
        <mxCell id="RxEbMOdD4OnWjUPRq5Kc-54" value="Client Disconnect" style="rounded=0;whiteSpace=wrap;html=1;fillColor=#6d8764;fontColor=#ffffff;strokeColor=#3A5431;" parent="1" vertex="1">
          <mxGeometry x="-100" y="890" width="120" height="60" as="geometry" />
        </mxCell>
        <mxCell id="RxEbMOdD4OnWjUPRq5Kc-58" value="The client sends termination signal or drop connection" style="rounded=0;whiteSpace=wrap;html=1;fillColor=#ffe6cc;strokeColor=#d79b00;" parent="1" vertex="1">
          <mxGeometry x="-120" y="970" width="160" height="60" as="geometry" />
        </mxCell>
        <mxCell id="RxEbMOdD4OnWjUPRq5Kc-63" value="" style="edgeStyle=orthogonalEdgeStyle;rounded=0;orthogonalLoop=1;jettySize=auto;html=1;strokeWidth=5;fillColor=#fff2cc;strokeColor=#d6b656;" parent="1" source="RxEbMOdD4OnWjUPRq5Kc-59" target="RxEbMOdD4OnWjUPRq5Kc-62" edge="1">
          <mxGeometry relative="1" as="geometry" />
        </mxCell>
        <mxCell id="RxEbMOdD4OnWjUPRq5Kc-59" value="Connection Closure" style="rounded=0;whiteSpace=wrap;html=1;fillColor=#6d8764;fontColor=#ffffff;strokeColor=#3A5431;" parent="1" vertex="1">
          <mxGeometry x="120" y="890" width="120" height="60" as="geometry" />
        </mxCell>
        <mxCell id="RxEbMOdD4OnWjUPRq5Kc-60" value="The server detects this and releases the resources associated with the client" style="rounded=0;whiteSpace=wrap;html=1;fillColor=#ffe6cc;strokeColor=#d79b00;" parent="1" vertex="1">
          <mxGeometry x="100" y="970" width="160" height="60" as="geometry" />
        </mxCell>
        <mxCell id="RxEbMOdD4OnWjUPRq5Kc-62" value="optional shutdown phase" style="rounded=0;whiteSpace=wrap;html=1;fillColor=#e1d5e7;strokeColor=#9673a6;" parent="1" vertex="1">
          <mxGeometry x="340" y="890" width="240" height="60" as="geometry" />
        </mxCell>
        <mxCell id="RxEbMOdD4OnWjUPRq5Kc-65" value="Server closes the listener, cleaning up any resources associated." style="rounded=0;whiteSpace=wrap;html=1;fillColor=#ffe6cc;strokeColor=#d79b00;" parent="1" vertex="1">
          <mxGeometry x="380" y="970" width="160" height="60" as="geometry" />
        </mxCell>
        <mxCell id="zvKBANkdmEWjLztah7ea-7" style="edgeStyle=orthogonalEdgeStyle;rounded=0;orthogonalLoop=1;jettySize=auto;html=1;exitX=0.5;exitY=1;exitDx=0;exitDy=0;entryX=0.5;entryY=0;entryDx=0;entryDy=0;strokeColor=light-dark(#ffffff, #ededed);strokeWidth=3;" edge="1" parent="1" source="zvKBANkdmEWjLztah7ea-1" target="zvKBANkdmEWjLztah7ea-2">
          <mxGeometry relative="1" as="geometry" />
        </mxCell>
        <mxCell id="zvKBANkdmEWjLztah7ea-1" value="TCP Server Architecure" style="rounded=0;whiteSpace=wrap;html=1;fillColor=#e1d5e7;strokeColor=#9673a6;" vertex="1" parent="1">
          <mxGeometry x="1728" y="48" width="240" height="48" as="geometry" />
        </mxCell>
        <mxCell id="zvKBANkdmEWjLztah7ea-8" style="edgeStyle=orthogonalEdgeStyle;rounded=0;orthogonalLoop=1;jettySize=auto;html=1;exitX=1;exitY=0.5;exitDx=0;exitDy=0;entryX=0;entryY=0.5;entryDx=0;entryDy=0;strokeColor=#FEFFFC;strokeWidth=3;" edge="1" parent="1" source="zvKBANkdmEWjLztah7ea-2" target="zvKBANkdmEWjLztah7ea-3">
          <mxGeometry relative="1" as="geometry" />
        </mxCell>
        <mxCell id="zvKBANkdmEWjLztah7ea-2" value="Create TCP listener" style="rounded=0;whiteSpace=wrap;html=1;fillColor=#dae8fc;strokeColor=#6c8ebf;" vertex="1" parent="1">
          <mxGeometry x="1536" y="144" width="240" height="48" as="geometry" />
        </mxCell>
        <mxCell id="zvKBANkdmEWjLztah7ea-9" style="edgeStyle=orthogonalEdgeStyle;rounded=0;orthogonalLoop=1;jettySize=auto;html=1;exitX=0.5;exitY=1;exitDx=0;exitDy=0;entryX=0.5;entryY=0;entryDx=0;entryDy=0;" edge="1" parent="1" source="zvKBANkdmEWjLztah7ea-3" target="zvKBANkdmEWjLztah7ea-5">
          <mxGeometry relative="1" as="geometry" />
        </mxCell>
        <mxCell id="zvKBANkdmEWjLztah7ea-3" value="Bind listener to IP/Port" style="rounded=0;whiteSpace=wrap;html=1;fillColor=#f8cecc;strokeColor=#b85450;" vertex="1" parent="1">
          <mxGeometry x="1920" y="144" width="240" height="48" as="geometry" />
        </mxCell>
        <mxCell id="zvKBANkdmEWjLztah7ea-11" value="" style="edgeStyle=orthogonalEdgeStyle;rounded=0;orthogonalLoop=1;jettySize=auto;html=1;" edge="1" parent="1" source="zvKBANkdmEWjLztah7ea-5" target="zvKBANkdmEWjLztah7ea-3">
          <mxGeometry relative="1" as="geometry" />
        </mxCell>
        <mxCell id="zvKBANkdmEWjLztah7ea-5" value="Start listener" style="rounded=0;whiteSpace=wrap;html=1;fillColor=#dae8fc;strokeColor=#6c8ebf;" vertex="1" parent="1">
          <mxGeometry x="1920" y="240" width="240" height="48" as="geometry" />
        </mxCell>
        <mxCell id="zvKBANkdmEWjLztah7ea-6" value="Accept client on main thread(Loop)" style="rounded=0;whiteSpace=wrap;html=1;fillColor=#f8cecc;strokeColor=#b85450;" vertex="1" parent="1">
          <mxGeometry x="1536" y="240" width="240" height="48" as="geometry" />
        </mxCell>
        <mxCell id="zvKBANkdmEWjLztah7ea-10" style="edgeStyle=orthogonalEdgeStyle;rounded=0;orthogonalLoop=1;jettySize=auto;html=1;exitX=0.5;exitY=1;exitDx=0;exitDy=0;entryX=0.5;entryY=0;entryDx=0;entryDy=0;strokeColor=#FEFFFC;strokeWidth=3;" edge="1" parent="1" source="zvKBANkdmEWjLztah7ea-3" target="zvKBANkdmEWjLztah7ea-5">
          <mxGeometry relative="1" as="geometry">
            <mxPoint x="1788" y="180" as="sourcePoint" />
            <mxPoint x="1932" y="180" as="targetPoint" />
          </mxGeometry>
        </mxCell>
        <mxCell id="zvKBANkdmEWjLztah7ea-12" style="edgeStyle=orthogonalEdgeStyle;rounded=0;orthogonalLoop=1;jettySize=auto;html=1;exitX=0;exitY=0.5;exitDx=0;exitDy=0;entryX=1;entryY=0.5;entryDx=0;entryDy=0;strokeColor=#FEFFFC;strokeWidth=3;" edge="1" parent="1" source="zvKBANkdmEWjLztah7ea-5" target="zvKBANkdmEWjLztah7ea-6">
          <mxGeometry relative="1" as="geometry">
            <mxPoint x="2052" y="204" as="sourcePoint" />
            <mxPoint x="2052" y="252" as="targetPoint" />
          </mxGeometry>
        </mxCell>
        <mxCell id="zvKBANkdmEWjLztah7ea-13" value="New Thread to handle communication for client" style="rounded=0;whiteSpace=wrap;html=1;fillColor=#dae8fc;strokeColor=#6c8ebf;" vertex="1" parent="1">
          <mxGeometry x="1536" y="336" width="240" height="48" as="geometry" />
        </mxCell>
        <mxCell id="zvKBANkdmEWjLztah7ea-14" style="edgeStyle=orthogonalEdgeStyle;rounded=0;orthogonalLoop=1;jettySize=auto;html=1;exitX=0.5;exitY=1;exitDx=0;exitDy=0;entryX=0.5;entryY=0;entryDx=0;entryDy=0;strokeColor=#FEFFFC;strokeWidth=3;" edge="1" parent="1" source="zvKBANkdmEWjLztah7ea-6" target="zvKBANkdmEWjLztah7ea-13">
          <mxGeometry relative="1" as="geometry">
            <mxPoint x="2052" y="204" as="sourcePoint" />
            <mxPoint x="2052" y="252" as="targetPoint" />
          </mxGeometry>
        </mxCell>
        <mxCell id="zvKBANkdmEWjLztah7ea-15" value="Handle Client Method to read data" style="rounded=0;whiteSpace=wrap;html=1;fillColor=#f8cecc;strokeColor=#b85450;" vertex="1" parent="1">
          <mxGeometry x="1920" y="336" width="240" height="48" as="geometry" />
        </mxCell>
        <mxCell id="zvKBANkdmEWjLztah7ea-16" style="edgeStyle=orthogonalEdgeStyle;rounded=0;orthogonalLoop=1;jettySize=auto;html=1;exitX=1;exitY=0.5;exitDx=0;exitDy=0;entryX=0;entryY=0.5;entryDx=0;entryDy=0;strokeColor=#FEFFFC;strokeWidth=3;" edge="1" parent="1">
          <mxGeometry relative="1" as="geometry">
            <mxPoint x="1776" y="359.72" as="sourcePoint" />
            <mxPoint x="1920" y="359.72" as="targetPoint" />
          </mxGeometry>
        </mxCell>
        <mxCell id="zvKBANkdmEWjLztah7ea-17" value="(Testing)Write Clients text message to console(testing)" style="rounded=0;whiteSpace=wrap;html=1;fillColor=#dae8fc;strokeColor=#6c8ebf;" vertex="1" parent="1">
          <mxGeometry x="1920" y="432" width="240" height="48" as="geometry" />
        </mxCell>
        <mxCell id="zvKBANkdmEWjLztah7ea-18" style="edgeStyle=orthogonalEdgeStyle;rounded=0;orthogonalLoop=1;jettySize=auto;html=1;exitX=0.5;exitY=1;exitDx=0;exitDy=0;entryX=0.5;entryY=0;entryDx=0;entryDy=0;strokeColor=#FEFFFC;strokeWidth=3;" edge="1" parent="1">
          <mxGeometry relative="1" as="geometry">
            <mxPoint x="2039.72" y="384" as="sourcePoint" />
            <mxPoint x="2039.72" y="432" as="targetPoint" />
          </mxGeometry>
        </mxCell>
        <mxCell id="zvKBANkdmEWjLztah7ea-19" value="Close client" style="rounded=0;whiteSpace=wrap;html=1;fillColor=#f8cecc;strokeColor=#b85450;" vertex="1" parent="1">
          <mxGeometry x="1536" y="432" width="240" height="48" as="geometry" />
        </mxCell>
        <mxCell id="zvKBANkdmEWjLztah7ea-20" style="edgeStyle=orthogonalEdgeStyle;rounded=0;orthogonalLoop=1;jettySize=auto;html=1;exitX=0;exitY=0.5;exitDx=0;exitDy=0;entryX=1;entryY=0.5;entryDx=0;entryDy=0;strokeColor=#FEFFFC;strokeWidth=3;" edge="1" parent="1">
          <mxGeometry relative="1" as="geometry">
            <mxPoint x="1920" y="455.72" as="sourcePoint" />
            <mxPoint x="1776" y="455.72" as="targetPoint" />
          </mxGeometry>
        </mxCell>
        <mxCell id="zvKBANkdmEWjLztah7ea-29" style="edgeStyle=orthogonalEdgeStyle;rounded=0;orthogonalLoop=1;jettySize=auto;html=1;exitX=0.5;exitY=1;exitDx=0;exitDy=0;entryX=0.5;entryY=0;entryDx=0;entryDy=0;strokeColor=#FEFFFC;strokeWidth=3;" edge="1" parent="1" source="zvKBANkdmEWjLztah7ea-21" target="zvKBANkdmEWjLztah7ea-22">
          <mxGeometry relative="1" as="geometry" />
        </mxCell>
        <mxCell id="zvKBANkdmEWjLztah7ea-21" value="TCP Client Architecure" style="rounded=0;whiteSpace=wrap;html=1;fillColor=#e1d5e7;strokeColor=#9673a6;" vertex="1" parent="1">
          <mxGeometry x="1728" y="576" width="240" height="48" as="geometry" />
        </mxCell>
        <mxCell id="zvKBANkdmEWjLztah7ea-22" value="Create TCP Client Object" style="rounded=0;whiteSpace=wrap;html=1;fillColor=#dae8fc;strokeColor=#6c8ebf;" vertex="1" parent="1">
          <mxGeometry x="1536" y="672" width="240" height="48" as="geometry" />
        </mxCell>
        <mxCell id="zvKBANkdmEWjLztah7ea-23" value="Connect to server" style="rounded=0;whiteSpace=wrap;html=1;fillColor=#f8cecc;strokeColor=#b85450;" vertex="1" parent="1">
          <mxGeometry x="1920" y="672" width="240" height="48" as="geometry" />
        </mxCell>
        <mxCell id="zvKBANkdmEWjLztah7ea-24" style="edgeStyle=orthogonalEdgeStyle;rounded=0;orthogonalLoop=1;jettySize=auto;html=1;exitX=0.5;exitY=1;exitDx=0;exitDy=0;strokeColor=#FEFFFC;strokeWidth=3;" edge="1" parent="1" source="zvKBANkdmEWjLztah7ea-23">
          <mxGeometry relative="1" as="geometry">
            <mxPoint x="2064.0000000000005" y="564" as="sourcePoint" />
            <mxPoint x="2040" y="768" as="targetPoint" />
          </mxGeometry>
        </mxCell>
        <mxCell id="zvKBANkdmEWjLztah7ea-25" style="edgeStyle=orthogonalEdgeStyle;rounded=0;orthogonalLoop=1;jettySize=auto;html=1;exitX=1;exitY=0.5;exitDx=0;exitDy=0;entryX=0;entryY=0.5;entryDx=0;entryDy=0;strokeColor=#FEFFFC;strokeWidth=3;" edge="1" parent="1">
          <mxGeometry relative="1" as="geometry">
            <mxPoint x="1776" y="695.62" as="sourcePoint" />
            <mxPoint x="1920" y="695.62" as="targetPoint" />
          </mxGeometry>
        </mxCell>
        <mxCell id="zvKBANkdmEWjLztah7ea-26" style="edgeStyle=orthogonalEdgeStyle;rounded=0;orthogonalLoop=1;jettySize=auto;html=1;exitX=0;exitY=0.5;exitDx=0;exitDy=0;entryX=1;entryY=0.5;entryDx=0;entryDy=0;strokeColor=#FEFFFC;strokeWidth=3;" edge="1" parent="1">
          <mxGeometry relative="1" as="geometry">
            <mxPoint x="1920" y="792" as="sourcePoint" />
            <mxPoint x="1776" y="792" as="targetPoint" />
          </mxGeometry>
        </mxCell>
        <mxCell id="zvKBANkdmEWjLztah7ea-27" value="Send Data" style="rounded=0;whiteSpace=wrap;html=1;fillColor=#dae8fc;strokeColor=#6c8ebf;" vertex="1" parent="1">
          <mxGeometry x="1920" y="768" width="240" height="48" as="geometry" />
        </mxCell>
        <mxCell id="zvKBANkdmEWjLztah7ea-28" value="Recieve Responses" style="rounded=0;whiteSpace=wrap;html=1;fillColor=#f8cecc;strokeColor=#b85450;" vertex="1" parent="1">
          <mxGeometry x="1536" y="768" width="240" height="48" as="geometry" />
        </mxCell>
      </root>
    </mxGraphModel>
  </diagram>
</mxfile>
